<?xml version="1.0" encoding="UTF-8"?>
<svg version="1.1" xmlns="http://www.w3.org/2000/svg" width="45" height="45">
<path d="M0 0 C10.83984375 -0.09765625 10.83984375 -0.09765625 14 0 C15 1 15 1 15.09765625 3.94140625 C15.08605469 5.13636719 15.07445313 6.33132813 15.0625 7.5625 C15.05347656 8.76003906 15.04445313 9.95757812 15.03515625 11.19140625 C15.02355469 12.11824219 15.01195313 13.04507812 15 14 C15.99902344 14.06058594 16.99804688 14.12117187 18.02734375 14.18359375 C19.31769531 14.26738281 20.60804687 14.35117188 21.9375 14.4375 C23.86916016 14.55931641 23.86916016 14.55931641 25.83984375 14.68359375 C29 15 29 15 30 16 C30.0989294 18.16480797 30.129711 20.33293785 30.125 22.5 C30.12886719 24.27890625 30.12886719 24.27890625 30.1328125 26.09375 C30 29 30 29 29 30 C26.64686445 30.07271741 24.29166332 30.08370868 21.9375 30.0625 C20.64714844 30.05347656 19.35679688 30.04445313 18.02734375 30.03515625 C17.02832031 30.02355469 16.02929688 30.01195313 15 30 C15.01160156 30.99902344 15.02320312 31.99804688 15.03515625 33.02734375 C15.04417969 34.31769531 15.05320312 35.60804687 15.0625 36.9375 C15.07410156 38.22527344 15.08570312 39.51304688 15.09765625 40.83984375 C15 44 15 44 14 45 C11.83519203 45.0989294 9.66706215 45.129711 7.5 45.125 C6.3140625 45.12757812 5.128125 45.13015625 3.90625 45.1328125 C1 45 1 45 0 44 C-0.07258946 41.81360547 -0.08373783 39.62499611 -0.0625 37.4375 C-0.05347656 36.23996094 -0.04445313 35.04242188 -0.03515625 33.80859375 C-0.02355469 32.88175781 -0.01195312 31.95492188 0 31 C-1.49853516 30.90912109 -1.49853516 30.90912109 -3.02734375 30.81640625 C-4.31769531 30.73261719 -5.60804687 30.64882813 -6.9375 30.5625 C-8.86916016 30.44068359 -8.86916016 30.44068359 -10.83984375 30.31640625 C-14 30 -14 30 -15 29 C-15.14426614 24.33154772 -15.04208415 19.67134047 -15 15 C-10.05 15 -5.1 15 0 15 C0 10.05 0 5.1 0 0 Z M10 18 C11 20 11 20 11 20 Z M9 21 C10 23 10 23 10 23 Z M8 23 C9 25 9 25 9 25 Z M7 25 C8 27 8 27 8 27 Z " fill="#7ACBD1" transform="translate(15,0)"/>
<path d="M0 0 C2.64590014 -0.02684679 5.29153096 -0.04676357 7.9375 -0.0625 C8.69224609 -0.07087891 9.44699219 -0.07925781 10.22460938 -0.08789062 C12.14994313 -0.09652441 14.07535581 -0.05224333 16 0 C17 1 17 1 17.1328125 3.90625 C17.13023438 5.0921875 17.12765625 6.278125 17.125 7.5 C17.12886719 9.27890625 17.12886719 9.27890625 17.1328125 11.09375 C17 14 17 14 16 15 C13.64686445 15.07271741 11.29166332 15.08370868 8.9375 15.0625 C7.64714844 15.05347656 6.35679688 15.04445313 5.02734375 15.03515625 C4.02832031 15.02355469 3.02929688 15.01195312 2 15 C2.01160156 15.99902344 2.02320313 16.99804688 2.03515625 18.02734375 C2.04417969 19.31769531 2.05320312 20.60804687 2.0625 21.9375 C2.07410156 23.22527344 2.08570313 24.51304688 2.09765625 25.83984375 C2 29 2 29 1 30 C-1.16480797 30.0989294 -3.33293785 30.129711 -5.5 30.125 C-6.6859375 30.12757812 -7.871875 30.13015625 -9.09375 30.1328125 C-12 30 -12 30 -13 29 C-13.07258946 26.81360547 -13.08373783 24.62499611 -13.0625 22.4375 C-13.05347656 21.23996094 -13.04445313 20.04242188 -13.03515625 18.80859375 C-13.02355469 17.88175781 -13.01195312 16.95492188 -13 16 C-11.96875 15.5875 -10.9375 15.175 -9.875 14.75 C-4.30639631 11.66515233 -2.40403646 5.6006124 0 0 Z " fill="#27B4BA" transform="translate(28,15)"/>
<path d="M0 0 C0.10841951 1.91541138 0.18578079 3.83259773 0.25 5.75 C0.29640625 6.81734375 0.3428125 7.8846875 0.390625 8.984375 C-0.09432206 12.7281663 -1.25384532 13.5244518 -4 16 C-5.36023864 18.53858491 -6.49858697 21.12178249 -7.65625 23.7578125 C-9.27551189 26.45972042 -9.98848112 27.10252749 -13 28 C-15.78824758 28.13997227 -18.46827116 28.1888913 -21.25 28.125 C-21.99507812 28.11597656 -22.74015625 28.10695313 -23.5078125 28.09765625 C-25.33868059 28.07418358 -27.16938238 28.03831525 -29 28 C-29.33 27.34 -29.66 26.68 -30 26 C-29.33613281 25.84144531 -28.67226563 25.68289062 -27.98828125 25.51953125 C-20.90210403 23.6471253 -17.19732417 21.72498764 -13.359375 15.21875 C-12.16041446 13.11274976 -10.96510475 11.00466692 -9.7734375 8.89453125 C-4.32388664 0 -4.32388664 0 0 0 Z " fill="#6FC7CD" transform="translate(30,2)"/>
<path d="M0 0 C0.02685412 2.31243792 0.04632841 4.6249627 0.0625 6.9375 C0.07410156 8.22527344 0.08570313 9.51304688 0.09765625 10.83984375 C0 14 0 14 -1 15 C-3.18639453 15.07258946 -5.37500389 15.08373783 -7.5625 15.0625 C-9.35880859 15.04896484 -9.35880859 15.04896484 -11.19140625 15.03515625 C-12.11824219 15.02355469 -13.04507812 15.01195312 -14 15 C-12.38873705 10.94772191 -9.49978002 8.23778153 -6.4375 5.25 C-5.93025391 4.74339844 -5.42300781 4.23679687 -4.90039062 3.71484375 C-1.14048812 0 -1.14048812 0 0 0 Z " fill="#42BBC1" transform="translate(30,30)"/>
<path d="M0 0 C0.02685938 2.14576637 0.04633088 4.29162645 0.0625 6.4375 C0.07410156 7.63246094 0.08570313 8.82742187 0.09765625 10.05859375 C0 13 0 13 -1 14 C-3.35313555 14.07271741 -5.70833668 14.08370868 -8.0625 14.0625 C-9.35285156 14.05347656 -10.64320312 14.04445313 -11.97265625 14.03515625 C-12.97167969 14.02355469 -13.97070312 14.01195312 -15 14 C-3.28571429 0 -3.28571429 0 0 0 Z " fill="#42BBC1" transform="translate(45,16)"/>
<path d="M0 0 C1.32 0.33 2.64 0.66 4 1 C-5.24 10.24 -14.48 19.48 -24 29 C-24.33 27.68 -24.66 26.36 -25 25 C-23.32701411 22.8159579 -21.71825837 21.01763439 -19.76953125 19.10546875 C-18.94928719 18.27804924 -18.94928719 18.27804924 -18.11247253 17.43391418 C-16.95246475 16.27050247 -15.78611287 15.11338726 -14.61401367 13.9621582 C-12.81916965 12.19407023 -11.05252396 10.40093466 -9.28710938 8.60351562 C-8.15784972 7.47755997 -7.02704002 6.35315632 -5.89453125 5.23046875 C-5.36519485 4.6910112 -4.83585846 4.15155365 -4.29048157 3.5957489 C-2.76489258 2.11791992 -2.76489258 2.11791992 0 0 Z " fill="#35B8BE" transform="translate(40,15)"/>
<path d="M0 0 C2.64 0 5.28 0 8 0 C3.77041966 5.04820879 -0.64199586 9.79646277 -5.3125 14.4375 C-5.94478516 15.07365234 -6.57707031 15.70980469 -7.22851562 16.36523438 C-8.13053711 17.26532227 -8.13053711 17.26532227 -9.05078125 18.18359375 C-9.59387939 18.72556396 -10.13697754 19.26753418 -10.6965332 19.82592773 C-12 21 -12 21 -13 21 C-13 19.35 -13 17.7 -13 16 C-11.96875 15.5875 -10.9375 15.175 -9.875 14.75 C-4.30639631 11.66515233 -2.40403646 5.6006124 0 0 Z " fill="#18B0B6" transform="translate(28,15)"/>
<path d="M0 0 C0.33 0 0.66 0 1 0 C1.04241723 2.33294775 1.04092937 4.66702567 1 7 C0 8 0 8 -3.5625 8.0625 C-4.696875 8.041875 -5.83125 8.02125 -7 8 C-6.02133662 6.85373678 -5.04205413 5.70800212 -4.0625 4.5625 C-3.51722656 3.92441406 -2.97195312 3.28632812 -2.41015625 2.62890625 C-1.63204305 1.73008851 -0.84063472 0.84063472 0 0 Z " fill="#5EC2C8" transform="translate(29,37)"/>
<path d="M0 0 C0.33 0 0.66 0 1 0 C1.04241723 2.33294775 1.04092937 4.66702567 1 7 C0 8 0 8 -3.5625 8.0625 C-4.696875 8.041875 -5.83125 8.02125 -7 8 C-6.02133662 6.85373678 -5.04205413 5.70800212 -4.0625 4.5625 C-3.51722656 3.92441406 -2.97195312 3.28632813 -2.41015625 2.62890625 C-1.63204305 1.73008851 -0.84063472 0.84063472 0 0 Z " fill="#5EC2C8" transform="translate(44,22)"/>
<path d="M0 0 C0.33 0.99 0.66 1.98 1 3 C-1.64 5.64 -4.28 8.28 -7 11 C-7.99 10.67 -8.98 10.34 -10 10 C-6.7 6.7 -3.4 3.4 0 0 Z " fill="#4FBFC5" transform="translate(29,34)"/>
<path d="M0 0 C0.33 0.99 0.66 1.98 1 3 C-1.64 5.64 -4.28 8.28 -7 11 C-7.99 10.67 -8.98 10.34 -10 10 C-6.7 6.7 -3.4 3.4 0 0 Z " fill="#4FBFC5" transform="translate(44,19)"/>
<path d="M0 0 C0.33 0.66 0.66 1.32 1 2 C-0.54442235 5.63393495 -1.48567857 6.78822059 -5.1875 8.3125 C-6.5796875 8.6528125 -6.5796875 8.6528125 -8 9 C-7.04270084 7.87411986 -6.08412105 6.7493285 -5.125 5.625 C-4.59132813 4.99851562 -4.05765625 4.37203125 -3.5078125 3.7265625 C-2.38567993 2.44163349 -1.20628025 1.20628025 0 0 Z " fill="#81CCD1" transform="translate(23,21)"/>
</svg>
